#!OML:ASF F:\VICON\USERDATA\INSTALL\rory3\rory3.ASF
:FULLY-SPECIFIED
:DEGREES
3884
root -3.37929 18.7659 -7.26808 9.9514 48.1457 353.959
lowerback 13.2389 -1.7279 -0.430542
upperback 5.40087 -2.2934 -3.93232
thorax -1.88773 -1.04673 -3.53027
lowerneck -10.7382 11.1962 -3.93494
upperneck 20.0238 17.7417 -6.48251
head 8.2928 7.48667 0.32005
rclavicle 3.10104e-014 -9.54166e-015
rhumerus -3.39373 28.0254 -78.389
rradius 117.578
rwrist -23.5172
rhand -34.6441 10.989
rfingers 7.12502
rthumb -7.80129 341.153
lclavicle 3.10104e-014 -9.54166e-015
lhumerus 11.2379 -18.906 90.8567
lradius 61.2732
lwrist 109.967
lhand -32.7778 -314.912
lfingers 7.12502
lthumb -5.99967 -645.016
rfemur -23.8255 19.9691 19.1171
rtibia 22.7571
rfoot -14.4111 -16.0418
rtoes 0.551741
lfemur -33.683 -8.00019 -6.46926
ltibia 22.6348
lfoot -5.26785 -0.30549
ltoes 4.62726
3885
root -3.43986 18.7696 -7.26073 10.1802 49.0764 354.133
lowerback 13.2611 -1.81742 -0.53131
upperback 5.34318 -2.42271 -3.83991
thorax -1.95999 -1.11313 -3.35516
lowerneck -10.6975 11.0785 -4.05381
upperneck 19.9246 17.5823 -6.462
head 8.23716 7.41573 0.320358
rclavicle 7.15625e-015 6.36111e-015
rhumerus -3.07831 29.1333 -77.8204
rradius 116.811
rwrist -23.1941
rhand -34.265 11.6261
rfingers 7.12502
rthumb -7.43535 341.777
lclavicle 7.15625e-015 6.36111e-015
lhumerus 11.7235 -19.3048 90.7554
lradius 59.5058
lwrist 110.645
lhand -32.8271 -315.214
lfingers 7.12502
lthumb -6.04728 -645.32
rfemur -24.0469 19.983 19.043
rtibia 22.8488
rfoot -14.5228 -16.8915
rtoes 0.717452
lfemur -33.8199 -9.03121 -6.08063
ltibia 21.9777
lfoot -6.3332 0.248627
ltoes 4.16905
3886
root -3.49354 18.7683 -7.25801 10.5098 50.0682 354.088
lowerback 12.8701 -1.90979 -0.610386
upperback 5.294 -2.54114 -3.53029
thorax -1.79066 -1.17723 -2.97649
lowerneck -10.7493 10.9417 -4.35687
upperneck 19.8383 17.4696 -6.57087
head 8.20276 7.33821 0.318323
rclavicle -9.54166e-015 3.97569e-014
rhumerus -2.60162 30.3812 -76.8425
rradius 115.989
rwrist -22.9483
rhand -34.2135 12.128
rfingers 7.12502
rthumb -7.38561 342.277
lclavicle -9.54166e-015 3.97569e-014
lhumerus 12.3733 -19.4766 90.9456
lradius 57.6026
lwrist 111.349
lhand -32.5927 -315.484
lfingers 7.12502
lthumb -5.82099 -645.584
rfemur -24.5643 19.4221 19.1141
rtibia 22.9254
rfoot -14.4552 -17.265
rtoes 0.634476
lfemur -34.2822 -9.81555 -5.58937
ltibia 21.3498
lfoot -7.58996 0.911709
ltoes 1.23909
3887
root -3.54018 18.7678 -7.24974 10.5966 50.925 354.03
lowerback 12.8256 -2.1451 0.123845
upperback 5.16721 -2.77982 -3.91357
thorax -1.96366 -1.28764 -3.7584
lowerneck -10.6746 10.9261 -3.95704
upperneck 19.7992 17.3271 -6.40169
head 8.18758 7.31904 0.293906
rclavicle -5.48646e-014 4.77083e-015
rhumerus -2.79033 31.5359 -77.3454
rradius 115.189
rwrist -22.5011
rhand -35.012 12.4284
rfingers 7.12502
rthumb -8.15633 342.606
lclavicle -5.48646e-014 4.77083e-015
lhumerus 12.714 -20.0176 90.2096
lradius 55.7816
lwrist 111.889
lhand -31.899 -315.405
lfingers 7.12502
lthumb -5.15119 -645.487
rfemur -24.765 19.0127 19.2494
rtibia 22.9801
rfoot -14.5009 -17.5606
rtoes 0.783939
lfemur -34.3983 -10.3046 -5.30207
ltibia 20.8137
lfoot -9.03191 1.32836
ltoes -2.70681
3888
root -3.5831 18.7656 -7.25031 10.7332 51.7179 354.072
lowerback 12.6345 -2.23034 0.272509
upperback 5.20728 -2.86754 -3.84524
thorax -1.82824 -1.32885 -3.76406
lowerneck -10.8055 10.8065 -4.08333
upperneck 19.6832 17.2022 -6.49331
head 8.16925 7.24708 0.275662
rclavicle -5.64548e-014 -3.02153e-014
rhumerus -2.69208 32.694 -77.0471
rradius 114.383
rwrist -21.8499
rhand -35.8864 12.2472
rfingers 7.12502
rthumb -9.00022 342.459
lclavicle -5.64548e-014 -3.02153e-014
lhumerus 13.225 -20.3517 90.1627
lradius 54.0773
lwrist 112.144
lhand -30.9493 -315.535
lfingers 7.12502
lthumb -4.2342 -645.597
rfemur -24.9437 19.1044 19.1569
rtibia 23.0033
rfoot -14.741 -18.2229
rtoes 1.46646
lfemur -34.514 -10.9359 -5.07997
ltibia 20.4371
lfoot -10.7892 1.7792
ltoes -2.86242
3889
root -3.62855 18.7649 -7.25341 10.8605 52.5102 354.191
lowerback 12.54 -2.29669 0.151872
upperback 5.2907 -2.95597 -3.60987
thorax -1.67826 -1.37339 -3.44042
lowerneck -11.052 10.7077 -4.47962
upperneck 19.6 17.1645 -6.56419
head 8.16088 7.19461 0.318681
rclavicle -4.6118e-014 -1.74931e-014
rhumerus -2.32149 33.639 -76.3046
rradius 113.521
rwrist -21.1373
rhand -36.0385 12.3698
rfingers 7.12502
rthumb -9.147 342.588
lclavicle -4.6118e-014 -1.74931e-014
lhumerus 13.5893 -20.5231 90.3799
lradius 52.6858
lwrist 112.26
lhand -30.1673 -315.791
lfingers 7.12502
lthumb -3.47907 -645.84
rfemur -25.0212 18.9812 19.083
rtibia 22.9843
rfoot -14.9703 -18.6641
rtoes 2.39119
lfemur -34.6203 -11.517 -4.98482
ltibia 20.2521
lfoot -12.4695 2.4733
ltoes -1.70933
3890
root -3.67707 18.7721 -7.25789 10.9616 53.3928 354.276
lowerback 12.5072 -2.43803 0.0972972
upperback 5.37454 -3.13699 -3.41608
thorax -1.57095 -1.46314 -3.18384
lowerneck -11.3046 10.679 -4.7413
upperneck 19.5476 17.2091 -6.65474
head 8.17808 7.18479 0.346639
rclavicle 4.13472e-014 3.97569e-014
rhumerus -1.86602 34.4188 -75.6519
rradius 112.733
rwrist -20.6228
rhand -36.0892 12.5321
rfingers 7.12502
rthumb -9.1959 342.753
lclavicle 4.13472e-014 3.97569e-014
lhumerus 13.9029 -20.6289 90.5008
lradius 51.4423
lwrist 112.432
lhand -29.2576 -315.741
lfingers 7.12502
lthumb -2.60049 -645.777
rfemur -25.1164 18.2688 19.2026
rtibia 23.011
rfoot -14.8754 -18.7558
rtoes 2.44127
lfemur -34.6965 -11.8859 -4.96224
ltibia 20.1747
lfoot -13.8217 3.28433
ltoes 0.741921
3891
root -3.72588 18.7774 -7.26439 10.9475 54.2328 354.138
lowerback 12.774 -2.82773 1.14737
upperback 5.19712 -3.55396 -3.98821
thorax -2.02136 -1.66056 -4.30364
lowerneck -11.3687 10.8708 -4.12695
upperneck 19.4996 17.3214 -6.51033
head 8.20767 7.28998 0.319517
rclavicle -2.14687e-014 -7.95139e-015
rhumerus -2.09655 34.8541 -76.8089
rradius 112.037
rwrist -20.2087
rhand -36.1205 12.3536
rfingers 7.12502
rthumb -9.22603 342.575
lclavicle -2.14687e-014 -7.95139e-015
lhumerus 13.7013 -21.2201 89.4752
lradius 50.5317
lwrist 112.86
lhand -28.579 -315.715
lfingers 7.12502
lthumb -1.94514 -645.744
rfemur -25.3111 17.6363 19.4307
rtibia 23.0297
rfoot -14.746 -18.8794
rtoes 2.52733
lfemur -34.8544 -11.8416 -5.00882
ltibia 20.2664
lfoot -15.2236 4.47933
ltoes 1.93542
3892
root -3.77232 18.7663 -7.27865 10.9185 54.9924 353.882
lowerback 12.7752 -2.99054 1.54347
upperback 5.20265 -3.72032 -3.92066
thorax -2.05005 -1.74071 -4.43172
lowerneck -11.5152 10.9336 -4.0923
upperneck 19.1675 17.4562 -6.90385
head 8.16815 7.33333 0.20744
rclavicle -5.40694e-014 1.27222e-014
rhumerus -1.73673 35.1169 -76.5639
rradius 111.586
rwrist -20.1416
rhand -36.1881 12.2222
rfingers 7.12502
rthumb -9.29131 342.447
lclavicle -5.40694e-014 1.27222e-014
lhumerus 13.6833 -21.6855 89.3347
lradius 50.0349
lwrist 113.277
lhand -28.7687 -315.493
lfingers 7.12502
lthumb -2.12833 -645.524
rfemur -25.667 17.4586 19.5455
rtibia 23.0548
rfoot -14.7546 -19.3233
rtoes 2.81694
lfemur -35.2887 -10.8578 -5.54571
ltibia 20.5164
lfoot -16.1495 6.14244
ltoes -1.30012
